<svg width="24" height="16" viewBox="0 0 24 16" fill="none" xmlns="http://www.w3.org/2000/svg">
<path d="M0 0.480009V15.243H7.155C7.80636 15.2443 8.45512 15.1609 9.085 14.995C9.68659 14.843 10.2557 14.5835 10.765 14.229C11.2549 13.8826 11.655 13.4243 11.932 12.892C12.218 12.35 12.362 11.705 12.362 10.957C12.362 10.033 12.142 9.24601 11.694 8.58701C11.248 7.93301 10.575 7.47401 9.666 7.21301C10.334 6.89701 10.832 6.49001 11.172 5.99501C11.51 5.49901 11.678 4.87801 11.678 4.13501C11.678 3.44701 11.566 2.86701 11.341 2.40301C11.1246 1.94923 10.7925 1.56051 10.378 1.27601C9.92454 0.979004 9.41789 0.772543 8.886 0.668009C8.25252 0.537004 7.60686 0.473981 6.96 0.480009H0ZM15.667 1.47001V2.92701H21.652V1.47101L15.667 1.47001ZM3.251 2.99601H6.291C6.579 2.99601 6.86 3.01601 7.127 3.06901C7.4 3.11501 7.635 3.20301 7.843 3.32901C8.053 3.44901 8.219 3.62101 8.344 3.84101C8.465 4.06101 8.525 4.34501 8.525 4.68901C8.525 5.30801 8.344 5.75901 7.97 6.03201C7.592 6.30901 7.116 6.44601 6.54 6.44601H3.25L3.251 2.99601ZM18.796 4.25001C17.976 4.25001 17.237 4.39601 16.566 4.68601C15.896 4.97601 15.32 5.37401 14.835 5.87801C14.3442 6.39262 13.9632 7.00161 13.715 7.66801C13.4483 8.38309 13.3145 9.14085 13.32 9.90401C13.32 10.731 13.449 11.494 13.704 12.184C13.962 12.875 14.324 13.465 14.79 13.964C15.2755 14.4676 15.8643 14.8599 16.516 15.114C17.196 15.383 17.954 15.519 18.796 15.519C20.004 15.519 21.04 15.242 21.891 14.686C22.751 14.133 23.381 13.215 23.797 11.929H21.212C21.112 12.259 20.852 12.578 20.428 12.875C19.998 13.175 19.486 13.325 18.894 13.325C18.07 13.325 17.434 13.108 16.995 12.678C16.554 12.248 16.268 11.449 16.268 10.604H23.981C24.0394 9.80488 23.9705 9.00155 23.777 8.22401C23.5984 7.49306 23.2791 6.8039 22.837 6.19501C22.3998 5.59947 21.8292 5.11454 21.171 4.77901C20.491 4.42501 19.701 4.25001 18.796 4.25001ZM18.707 6.46701C19.428 6.46701 20.02 6.67701 20.368 7.06201C20.718 7.45201 20.975 8.00601 21.045 8.75401H16.268C16.2871 8.51486 16.332 8.27848 16.402 8.04901C16.477 7.78301 16.606 7.53301 16.796 7.29601C16.986 7.06401 17.236 6.86601 17.54 6.70601C17.85 6.54601 18.238 6.46701 18.707 6.46701ZM3.251 8.66401H6.784C7.484 8.66401 8.053 8.82401 8.479 9.14801C8.905 9.47601 9.119 10.016 9.119 10.777C9.119 11.165 9.057 11.487 8.925 11.733C8.795 11.983 8.615 12.18 8.397 12.323C8.18 12.473 7.922 12.573 7.631 12.637C7.345 12.701 7.041 12.729 6.72 12.729H3.25L3.251 8.66401Z" fill="#ADADAD"/>
</svg>
