<svg width="24" height="18" viewBox="0 0 24 18" fill="none" xmlns="http://www.w3.org/2000/svg">
<path d="M24 1.50001V16.5C24 17.3513 23.3512 18 22.5 18H21V4.38676L12 10.8518L3 4.38676V18H1.5C0.64875 18 0 17.3513 0 16.5V1.50001C0 1.07401 0.1605 0.699006 0.42975 0.433506C0.569979 0.293201 0.736987 0.182524 0.920845 0.108053C1.1047 0.033582 1.30166 -0.00316199 1.5 5.57574e-06H2.00025L12 7.25026L21.9998 5.57574e-06H22.5C22.926 5.57574e-06 23.301 0.160506 23.5702 0.433506C23.8395 0.699006 24 1.07401 24 1.50001Z" fill="#ADADAD"/>
</svg>
